Coordinates
version=1
nRows=60
nColumns=12
inDegrees=yes

Units are S.I. units (second, meters, Newtons, ...)
Angles are in degrees

endheader
time	SC_y	SC_z	SC_x	AC_y	AC_z	AC_x	GH_y	GH_z	GH_yy	EL_x	PS_y
       0.0              -21.31          11.27          38.94          56.02           9.12          17.59         -78.59           83.4          110.3          16.92          133.5
   0.03795              -21.31          11.27          38.94          56.02          9.119          17.59         -78.57           83.4          110.3          16.93          133.4
    0.0759              -21.32          11.27          38.95          56.02          9.118          17.59         -78.55           83.4          110.3          16.94          133.4
    0.1139              -21.32          11.28          38.95          56.02          9.116          17.59         -78.53           83.4          110.2          16.95          133.4
    0.1518              -21.32          11.28          38.96          56.02          9.115          17.59         -78.51           83.4          110.2          16.96          133.4
    0.1898              -21.33          11.28          38.96          56.02          9.113          17.59         -78.49           83.4          110.2          16.97          133.4
    0.2277              -21.33          11.29          38.96          56.02          9.112          17.59         -78.46           83.4          110.2          16.99          133.3
    0.2657              -21.34          11.29          38.97          56.02           9.11          17.59         -78.43           83.4          110.1           17.0          133.3
    0.3036              -21.34           11.3          38.97          56.02          9.108          17.59          -78.4           83.4          110.1          17.02          133.3
    0.3416              -21.35           11.3          38.98          56.02          9.106          17.59         -78.37           83.4          110.0          17.03          133.3
    0.3795              -21.35          11.31          38.99          56.02          9.104          17.59         -78.34           83.4          110.0          17.05          133.2
    0.4175              -21.36          11.32          38.99          56.02          9.102          17.59          -78.3           83.4          110.0          17.07          133.2
    0.4554              -21.36          11.32           39.0          56.02            9.1          17.59         -78.26           83.4          109.9          17.09          133.2
    0.4934              -21.37          11.33          39.01          56.02          9.097          17.59         -78.22           83.4          109.9          17.11          133.1
    0.5313              -21.38          11.34          39.01          56.02          9.094          17.59         -78.17           83.4          109.8          17.13          133.1
    0.5693              -21.39          11.34          39.02          56.02          9.091          17.59         -78.12          83.41          109.7          17.16          133.0
    0.6072              -21.39          11.35          39.03          56.02          9.088          17.59         -78.07          83.41          109.7          17.19          133.0
    0.6452               -21.4          11.36          39.04          56.02          9.084          17.59         -78.01          83.41          109.6          17.22          132.9
    0.6831              -21.41          11.37          39.05          56.02           9.08          17.59         -77.95          83.41          109.5          17.25          132.9
    0.7211              -21.43          11.39          39.07          56.02          9.076          17.59         -77.88          83.41          109.4          17.29          132.8
     0.759              -21.44           11.4          39.08          56.02          9.071          17.59          -77.8          83.41          109.3          17.33          132.7
     0.797              -21.45          11.41          39.09          56.02          9.066          17.59         -77.71          83.41          109.2          17.37          132.7
    0.8349              -21.47          11.43          39.11          56.02           9.06          17.59         -77.62          83.41          109.1          17.42          132.6
    0.8729              -21.48          11.45          39.13          56.01          9.053          17.59         -77.51          83.42          109.0          17.47          132.5
    0.9108               -21.5          11.46          39.15          56.01          9.046          17.59          -77.4          83.42          108.9          17.53          132.4
    0.9488              -21.52          11.49          39.17          56.01          9.038          17.59         -77.27          83.42          108.7           17.6          132.3
    0.9868              -21.55          11.51           39.2          56.01          9.029          17.59         -77.12          83.42          108.5          17.67          132.1
     1.025              -21.57          11.54          39.22          56.01          9.019          17.59         -76.96          83.42          108.3          17.76          132.0
     1.063               -21.6          11.57          39.26          56.01          9.008          17.59         -76.78          83.43          108.1          17.85          131.8
     1.101              -21.64           11.6          39.29          56.01          8.995          17.59         -76.57          83.43          107.9          17.96          131.6
     1.139              -21.68          11.64          39.33           56.0           8.98           17.6         -76.33          83.43          107.6          18.08          131.4
     1.177              -21.72          11.69          39.38           56.0          8.964           17.6         -76.06          83.44          107.2          18.22          131.2
     1.214              -21.77          11.74          39.44           56.0          8.944           17.6         -75.74          83.44          106.8          18.39          130.9
     1.252              -21.83           11.8           39.5          55.99          8.921           17.6         -75.37          83.45          106.4          18.58          130.5
      1.29               -21.9          11.87          39.57          55.99          8.895           17.6         -74.94          83.46          105.9           18.8          130.2
     1.328              -21.98          11.95          39.66          55.98          8.864           17.6         -74.44          83.47          105.3          19.06          129.7
     1.366              -22.08          12.05          39.77          55.98          8.827           17.6         -73.84          83.48          104.5          19.37          129.2
     1.404              -22.19          12.17          39.89          55.97          8.782          17.61         -73.11          83.49          103.7          19.74          128.5
     1.442              -22.33          12.32          40.04          55.96          8.728          17.61         -72.24           83.5          102.6          20.19          127.7
      1.48              -22.51          12.49          40.23          55.95          8.662          17.61         -71.17          83.52          101.3          20.74          126.8
     1.518              -22.72          12.71          40.46          55.94          8.581          17.62         -69.86          83.54          99.69          21.42          125.6
     1.556              -22.98          12.98          40.74          55.93           8.48          17.62         -68.22          83.57           97.7          22.26          124.1
     1.594              -23.32          13.33           41.1          55.91          8.353          17.63         -66.15           83.6          95.18          23.33          122.2
     1.632              -23.74          13.76          41.56          55.88           8.19          17.63         -63.52          83.64          91.99          24.68          119.8
      1.67              -24.28          14.32          42.15          55.85          7.983          17.64         -60.16           83.7           87.9          26.41          116.8
     1.708              -24.98          15.03           42.9          55.81          7.717          17.66         -55.84          83.77          82.65          28.63          112.9
     1.746              -25.87          15.94          43.85          55.76          7.377          17.67         -50.33          83.86          75.94          31.47          107.9
     1.784              -26.98          17.09          45.06          55.69          6.949           17.7         -43.39          83.97          67.51          35.04          101.7
     1.822              -28.34          18.49          46.53          55.61          6.428          17.72         -34.94          84.11          57.24          39.39          94.03
      1.86              -29.92          20.11          48.23          55.52          5.824          17.75         -25.15          84.27          45.33          44.44          85.19
     1.898              -31.63          21.86          50.07          55.42           5.17          17.78         -14.54          84.44          32.43           49.9          75.61
     1.936              -33.34          23.62          51.92          55.32          4.516          17.82         -3.939          84.61          19.54          55.36          66.03
     1.974              -34.92          25.24          53.62          55.22          3.912          17.85          5.854          84.77          7.627           60.4          57.19
     2.011              -36.28          26.64          55.09          55.14          3.391          17.87           14.3          84.91         -2.647          64.75          49.55
     2.049               -37.4          27.78          56.29          55.08          2.963          17.89          21.24          85.02         -11.08          68.33          43.29
     2.087              -38.29           28.7          57.25          55.02          2.623          17.91          26.75          85.11         -17.78          71.16          38.31
     2.125              -38.98          29.41           58.0          54.98          2.357          17.92          31.07          85.18         -23.03          73.39          34.41
     2.163              -39.53          29.97          58.59          54.95          2.149          17.93          34.43          85.24         -27.12          75.12          31.38
     2.201              -39.95           30.4          59.04          54.93          1.987          17.94          37.06          85.28         -30.32          76.47           29.0
     2.239              -40.28          30.74           59.4          54.91           1.86          17.95          39.13          85.31         -32.83          77.54          27.13
